#!OML:ASF E:/inclinewalkrobotboard/Project1/Captureday1/Session1/subject1.ASF
:FULLY-SPECIFIED
:DEGREES
363
root 0 0 0 -1.4365028977545198 0.6646360296209024 1.5084898291350357
lowerback 10.338657054250355 -1.5135375598819398 -3.644495215561464
upperback 0.36290159265816563 -2.3123607484880084 1.8331264915719832
thorax -5.247324878850312 -1.0467677020104416 4.278275990763974
lowerneck -18.095628546201525 -2.4549331091348674 -2.196256514423949
upperneck 20.09375201794367 -2.83409789951946 -0.26896634988721146
head 9.35354500764241 -1.4735370903711795 -0.11644004071969788
rclavicle -1.1523243039573803E-15 3.910882181187367E-16
rhumerus -35.59597613071285 -24.047006705709357 -77.44126910617508
rradius 18.935675924097488
rwrist 7.028077665853064
rhand -18.01534544673935 25.1460947688932
rfingers 7.125020000000024
rthumb 8.252046465528796 -4.676584700443058
lclavicle -2.050527782126166E-15 -2.911065698592725E-16
lhumerus -26.848842007426818 -3.2772594273286795 80.6011141218327
lradius 31.699090026927962
lwrist 7.491650670548047
lhand -27.82827486560307 25.915270915512213
lfingers 7.125019999999996
lthumb -1.2435127779084922 55.92159959168117
rfemur -30.84163973356488 6.012131447200147 20.913707793551705
rtibia 22.792429300031507
rfoot -9.311351079780682 -11.03815493217827
rtoes -1.1465825670603647
lfemur 13.280308631567767 -3.5672828350986365 -28.016363001289122
ltibia 20.86877824766868
lfoot -11.70977816627095 -5.141616618019455
ltoes -6.2928754730481025
364
root 0 0 0 -1.623043351741056 0.9302259989965069 -0.35197204868931475
lowerback 9.667377538726612 -1.667849090999045 -2.1667793968298943
upperback 0.0015065075582495202 -2.3213882049030374 2.3229212037316715
thorax -5.262775391149829 -1.0802169637178933 3.9744175096957837
lowerneck -18.539603173993186 -2.23586892492485 -2.012499770284894
upperneck 21.7781658409303 -2.6347093388050826 -0.4470999883024136
head 10.01771524524785 -1.3437129776763324 -0.19720690503326488
rclavicle -1.273575352196E-15 -3.1003640590574195E-16
rhumerus -35.90489846929661 -24.50300688779038 -77.2694624758855
rradius 18.366973860589233
rwrist 7.669780604266237
rhand -17.927579130819776 25.2205213442466
rfingers 7.125020000000022
rthumb 8.336326512036068 -4.592490891755737
lclavicle -2.7264387411430078E-15 -9.950102382925381E-16
lhumerus -27.571075678123464 -2.979644089626079 80.87132625773353
lradius 31.384573111654568
lwrist 7.434531634976276
lhand -27.76899929903604 25.828904787501376
lfingers 7.125019999999999
lthumb -1.1829608771125084 55.829482147682256
rfemur -22.5824081415358 6.524653601206232 22.781284438336954
rtibia 20.521451944968497
rfoot -9.015964743732926 -7.518780238082838
rtoes 3.9065053826464
lfemur 15.356029671452095 -3.48797330255358 -26.817412251280523
ltibia 28.400777355363665
lfoot -5.592555940263109 -9.671828930088331
ltoes -8.84928388409282
365
root 0 0 0 -2.1643810687691882 0.5026409748025014 -1.387188991874392
lowerback 9.473343807703841 -1.6087473237953067 -1.161801071760607
upperback -0.11168200544089517 -2.12326932942533 2.4641134566139016
thorax -5.33313367439162 -1.0022719568747889 3.540536735810459
lowerneck -18.01509613836084 -2.096887346374169 -1.7450775116669237
upperneck 21.89662174268888 -2.4562314321409144 -0.6314701772584488
head 9.939816611739396 -1.2657335242032888 -0.27115668503369067
rclavicle -1.5157883046912067E-15 -1.1792178856007502E-15
rhumerus -36.060187510892085 -24.653386395237078 -77.26440259117787
rradius 18.00185043255818
rwrist 8.222551477852626
rhand -17.852991876911673 25.319425418597497
rfingers 7.1250200000000214
rthumb 8.408557401190942 -4.483027634328671
lclavicle -3.665042920138639E-15 -2.0149314534815326E-15
lhumerus -28.76681483308697 -2.446603532275903 81.55224430293319
lradius 30.66692271777487
lwrist 7.236064265488697
lhand -27.637075329456934 25.625854435780003
lfingers 7.125020000000007
lthumb -1.0485877786888649 55.617100006374415
rfemur -19.891225077794356 6.614969729379888 24.256199118729292
rtibia 21.984490411149952
rfoot -9.301884036169008 -5.697939928610513
rtoes 7.436824238727464
lfemur 8.640869552023595 -1.92908626720929 -22.375743590117395
ltibia 51.13089138174736
lfoot 11.186872285217294 -19.213696665017046
ltoes -1.407472019168729
366
root 0 0 0 -3.00836280074357 -0.3125073588838263 -3.221740717629067
lowerback 10.723157075953466 -1.3745357471571666 0.5033964504952488
upperback 0.5013764005282311 -1.5945562443758587 2.803397406098256
thorax -5.450120633899972 -0.7743299819352931 2.890314801365707
lowerneck -16.955391256912055 -2.333652949329887 -1.6646205170570414
upperneck 18.777162368434816 -2.673609418936376 -0.520209151058151
head 8.644946134940676 -1.4234861122817113 -0.2424990093814911
rclavicle -1.5849678757539145E-15 -2.611291090476687E-15
rhumerus -35.75511234707622 -24.262224536440275 -77.49674403330108
rradius 18.112335077942603
rwrist 8.324383177039632
rhand -17.830832669548734 25.544574017398332
rfingers 7.1250200000000214
rthumb 8.429890071406236 -4.2534660996410025
lclavicle -4.120056554836131E-15 -3.861733763661513E-15
lhumerus -29.429266117886108 -2.204173860475036 82.54731101190261
lradius 29.948621442970577
lwrist 6.912813970729744
lhand -27.54271361009084 25.196310291976296
lfingers 7.125020000000014
lthumb -0.9528887139179609 55.18365231350043
rfemur -19.64369489732015 6.707101990338403 25.489549003431172
rtibia 24.455418285894748
rfoot -9.35437332648515 -5.5435236474489304
rtoes 9.180645015875895
lfemur -2.242876233913355 -0.13187523605673457 -17.71501545142609
ltibia 58.591429517917184
lfoot 15.980468357720003 -20.446911650367024
ltoes -1.5503171012523538
